PathFileType	4	(X/Y/Z)	C:/Users/empri/Downloads/Take 2024-05-09 02.19.33 PM.trc
DataRate	CameraRate	NumFrames	NumMarkers	Units	OrigDataRate	OrigDataStartFrame	OrigNumFrames
240	240	53	9	mm	240	630	841
Frame#	Time	C7	CLAV	RELB	RFIN	RFRM	RSHO	RUPA	RWRA	RWRB
X1	Y1	Z1	X2	Y2	Z2	X3	Y3	Z3	X4	Y4	Z4	X5	Y5	Z5	X6	Y6	Z6	X7	Y7	Z7	X8	Y8	Z8	X9	Y9	Z9
630	2.625	-137.917	1548.2	-71.4609	26.4648	1375.73	-145.083	150.332	1235.9	193.411	324.739	957.18	192.948	191.365	1130.35	248.57	4.66468	1507.71	51.255	61.8117	1381.6	149.198	257.802	1011.94	177.083	223.115	998.652	264.698
631	2.629	-137.798	1548.18	-71.2949	26.5289	1375.66	-145.089	149.67	1234.27	192.143	322.436	954.585	189.848	190.301	1128.23	246.719	5.00174	1507.49	51.3415	61.9215	1380.8	148.725	255.789	1009.79	174.456	221.271	996.198	262.046
632	2.633	-137.681	1548.16	-71.1283	26.5931	1375.59	-145.09	149.001	1232.62	190.905	320.186	952.01	186.807	189.229	1126.16	244.89	5.34266	1507.28	51.4231	62.0334	1380.02	148.351	253.831	1007.66	171.823	219.414	993.831	259.385
633	2.638	-137.521	1548.13	-70.9134	26.6674	1375.5	-145.111	148.139	1230.63	189.326	317.403	948.807	182.972	187.799	1123.49	242.579	5.7291	1507.03	51.5096	62.1835	1378.99	147.888	251.354	1005.05	168.554	217.123	990.886	256.083
634	2.642	-137.399	1548.11	-70.7524	26.7331	1375.44	-145.12	147.528	1229.03	188.08	315.134	946.305	179.937	186.708	1121.42	240.777	6.04232	1506.81	51.59	62.3234	1378.22	147.564	249.389	1002.99	165.952	215.334	988.551	253.481
635	2.646	-137.235	1548.08	-70.5879	26.7908	1375.4	-145.14	146.895	1227.41	186.873	312.933	943.835	176.964	185.602	1119.44	238.987	6.36217	1506.57	51.6532	62.4632	1377.47	147.188	247.504	1000.97	163.374	213.532	986.248	250.937
636	2.65	-137.123	1548.06	-70.4385	26.8525	1375.35	-145.151	146.24	1225.87	185.697	310.71	941.415	173.971	184.489	1117.31	237.178	6.69436	1506.33	51.7641	62.6047	1376.61	146.845	245.627	999.062	160.857	211.729	983.976	248.399
637	2.654	-137.006	1548.04	-70.2855	26.9049	1375.31	-145.165	145.635	1224.33	184.597	308.504	938.953	171.022	183.389	1115.33	235.437	7.05929	1506.07	51.868	62.7086	1375.82	146.57	243.671	997.023	158.369	209.968	981.689	245.933
638	2.658	-136.914	1548.03	-70.0971	26.9437	1375.27	-145.172	145.032	1222.74	183.425	306.304	936.529	168.024	182.318	1113.31	233.684	7.39162	1505.81	51.9856	62.8265	1374.99	146.25	241.75	995.021	155.88	208.247	979.43	243.531
639	2.663	-136.747	1548	-69.8693	26.9899	1375.22	-145.183	144.265	1220.71	181.971	303.539	933.571	164.363	180.952	1110.69	231.565	7.79557	1505.42	52.1426	62.9301	1373.87	145.898	239.399	992.597	152.883	206.067	976.675	240.483
640	2.667	-136.6	1547.95	-69.6778	27.0272	1375.15	-145.2	143.629	1219.15	180.822	301.309	931.165	161.542	179.817	1108.68	229.768	8.16089	1505.07	52.2451	63.0351	1372.96	145.595	237.532	990.613	150.595	204.319	974.442	238.1
641	2.671	-136.499	1547.92	-69.5303	27.0734	1375.1	-145.231	143.026	1217.54	179.643	299.216	928.854	158.683	178.779	1106.63	228.064	8.52542	1504.74	52.38	63.1572	1372.01	145.241	235.793	988.815	148.121	202.604	972.198	235.723
642	2.675	-136.375	1547.87	-69.3879	27.1023	1375.04	-145.262	142.483	1215.96	178.43	297.029	926.545	155.868	177.715	1104.67	226.364	8.84835	1504.37	52.5022	63.2471	1371.02	144.891	233.932	986.872	145.611	200.933	969.973	233.365
643	2.679	-136.273	1547.83	-69.2369	27.1414	1374.98	-145.284	141.877	1214.3	177.355	294.857	924.199	153.024	176.766	1102.65	224.657	9.16777	1503.99	52.6233	63.3413	1370.01	144.507	232.1	984.961	143.254	199.262	967.826	231.039
644	2.683	-136.169	1547.79	-69.0737	27.1725	1374.92	-145.292	141.323	1212.75	176.253	292.705	921.829	150.219	175.72	1100.67	222.954	9.48415	1503.58	52.7881	63.4458	1369.04	144.287	230.235	983.002	140.918	197.526	965.713	228.743
645	2.688	-136.019	1547.72	-68.8587	27.2325	1374.82	-145.327	140.599	1210.75	174.809	290.021	919.004	146.785	174.451	1098.17	220.848	9.91775	1503.06	52.9644	63.5463	1367.73	143.66	227.974	980.557	137.994	195.461	963.023	225.98
646	2.692	-135.886	1547.67	-68.6895	27.2596	1374.72	-145.333	140.082	1209.13	173.641	287.865	916.765	144.104	173.446	1096.26	219.144	10.25	1502.66	53.0832	63.5999	1366.76	143.35	226.196	978.776	135.692	193.717	961.077	223.839
647	2.696	-135.748	1547.62	-68.5216	27.3361	1374.66	-145.356	139.567	1207.58	172.433	285.75	914.542	141.398	172.47	1094.32	217.497	10.5459	1502.2	53.2132	63.6925	1365.77	143.031	224.411	976.907	133.399	191.98	959.111	221.696
648	2.7	-135.599	1547.59	-68.309	27.4222	1374.59	-145.384	139.045	1206.05	171.291	283.62	912.397	138.776	171.486	1092.39	215.835	10.8597	1501.72	53.2971	63.8199	1364.71	142.597	222.62	975.111	131.117	190.307	957.064	219.481
649	2.704	-135.414	1547.51	-68.1206	27.5106	1374.51	-145.398	138.503	1204.51	170.089	281.467	910.18	136.14	170.536	1090.63	214.124	11.1539	1501.3	53.4121	63.9118	1363.69	142.26	220.825	973.269	128.913	188.655	955.042	217.23
650	2.708	-135.261	1547.45	-67.9252	27.595	1374.43	-145.436	138.003	1203.02	168.889	279.382	908.112	133.567	169.555	1088.82	212.462	11.4654	1500.91	53.5361	64.0505	1362.65	141.716	219.015	971.511	126.677	187.065	953.134	214.995
651	2.712	-135.136	1547.4	-67.7426	27.6851	1374.34	-145.453	137.467	1201.52	167.689	277.306	906.038	130.963	168.61	1087.04	210.801	11.7474	1500.52	53.6244	64.1616	1361.6	141.325	217.229	969.76	124.508	185.486	951.276	212.804
652	2.717	-134.96	1547.35	-67.4633	27.7934	1374.19	-145.497	136.794	1199.72	166.211	274.653	903.423	127.749	167.457	1084.88	208.665	12.1155	1499.96	53.7749	64.2094	1360.45	140.793	214.977	967.534	121.778	183.532	948.924	210.046
653	2.721	-134.843	1547.29	-67.2517	27.8784	1374.07	-145.531	136.29	1198.33	164.981	272.577	901.399	125.228	166.538	1083.19	206.975	12.4409	1499.52	53.8493	64.3215	1359.51	140.335	213.228	965.823	119.577	181.961	947.096	207.86
654	2.725	-134.744	1547.22	-67.0467	27.9467	1373.94	-145.585	135.758	1196.87	163.721	270.469	899.381	122.663	165.587	1081.45	205.334	12.7152	1499.13	53.9575	64.4099	1358.58	139.853	211.454	964.143	117.412	180.387	945.25	205.611
655	2.729	-134.653	1547.16	-66.8611	28.0028	1373.83	-145.615	135.224	1195.54	162.549	268.412	897.421	120.204	164.634	1079.81	203.694	13.0021	1498.75	54.0612	64.4576	1357.67	139.478	209.682	962.551	115.147	178.817	943.479	203.508
656	2.733	-134.559	1547.09	-66.6787	28.0848	1373.73	-145.62	134.695	1194.15	161.369	266.377	895.509	117.755	163.729	1078.21	202.059	13.2682	1498.32	54.1768	64.5486	1356.76	139.119	207.914	960.925	113.223	177.203	941.791	201.471
657	2.737	-134.454	1547.02	-66.4258	28.1443	1373.58	-145.65	134.131	1192.79	160.155	264.357	893.679	115.406	162.783	1076.6	200.465	13.5789	1497.92	54.2422	64.648	1355.83	138.768	206.081	959.203	111.276	175.673	940.139	199.446
658	2.742	-134.292	1546.88	-66.135	28.2255	1373.42	-145.686	133.411	1191.14	158.727	261.778	891.284	112.22	161.583	1074.52	198.453	13.9312	1497.4	54.3496	64.7667	1354.71	138.309	203.896	957.268	108.721	173.697	938.114	196.949
659	2.746	-134.187	1546.81	-65.9415	28.2813	1373.28	-145.733	132.923	1189.79	157.539	259.754	889.375	109.86	160.66	1072.93	196.864	14.1957	1497.01	54.4324	64.8921	1353.71	137.874	202.197	955.76	106.509	172.106	936.499	194.923
660	2.75	-134.082	1546.74	-65.7596	28.3542	1373.16	-145.763	132.401	1188.48	156.432	257.78	887.635	107.535	159.77	1071.44	195.34	14.5009	1496.6	54.5309	64.9518	1352.79	137.53	200.406	954.225	104.526	170.487	934.857	192.939
661	2.754	-133.983	1546.69	-65.5726	28.4021	1373.06	-145.784	131.864	1187.21	155.337	255.782	885.893	105.183	158.86	1069.9	193.762	14.7848	1496.19	54.591	65.0232	1351.95	137.179	198.756	952.794	102.472	168.939	933.187	190.959
662	2.758	-133.888	1546.64	-65.374	28.4306	1372.93	-145.795	131.327	1185.93	154.283	253.813	884.154	102.905	157.957	1068.36	192.27	15.075	1495.81	54.6823	65.1365	1351.01	136.792	197.006	951.283	100.517	167.417	931.608	188.98
663	2.763	-133.712	1546.57	-65.1276	28.4857	1372.77	-145.798	130.644	1184.28	152.943	251.294	881.99	100.098	156.754	1066.45	190.398	15.457	1495.31	54.7781	65.2435	1349.95	136.404	194.872	949.474	98.0813	165.454	929.623	186.612
664	2.767	-133.598	1546.53	-64.9318	28.5217	1372.64	-145.803	130.165	1183.04	151.92	249.321	880.299	97.8478	155.876	1064.94	188.864	15.7439	1494.89	54.8585	65.354	1349.07	136.059	193.194	948.073	96.1522	163.897	928.089	184.725
665	2.771	-133.498	1546.5	-64.7479	28.5664	1372.53	-145.816	129.67	1181.79	150.869	247.371	878.621	95.6162	155.008	1063.46	187.384	16.0397	1494.44	54.9406	65.467	1348.24	135.737	191.536	946.667	94.271	162.328	926.564	182.875
666	2.775	-133.4	1546.47	-64.546	28.6113	1372.43	-145.828	129.16	1180.53	149.85	245.429	877.015	93.439	154.101	1061.96	186.002	16.3266	1494.06	55.0328	65.5667	1347.38	135.343	189.862	945.297	92.419	160.804	924.993	181.04
667	2.779	-133.304	1546.44	-64.3737	28.6908	1372.33	-145.814	128.627	1179.29	148.87	243.491	875.445	91.3255	153.157	1060.51	184.601	16.6253	1493.73	55.1049	65.6721	1346.54	135.001	188.191	943.992	90.5607	159.228	923.492	179.211
668	2.783	-133.211	1546.4	-64.2103	28.7589	1372.2	-145.805	128.074	1178.04	147.907	241.583	873.906	89.2275	152.196	1059.1	183.223	16.9666	1493.35	55.171	65.7868	1345.71	134.652	186.545	942.626	88.8257	157.665	922.037	177.45
669	2.788	-133.092	1546.33	-64.0208	28.8048	1372.08	-145.801	127.487	1176.64	146.723	239.198	872.02	86.6715	150.985	1057.26	181.501	17.3566	1492.88	55.2518	65.8947	1344.75	134.233	184.551	941.047	86.6591	155.724	920.273	175.253
670	2.792	-132.993	1546.29	-63.8745	28.8527	1371.98	-145.807	126.917	1175.4	145.794	237.321	870.543	84.6095	149.997	1055.85	180.196	17.6419	1492.51	55.3064	66.0081	1343.95	133.895	182.935	939.751	84.8961	154.161	918.862	173.477
671	2.796	-132.899	1546.24	-63.759	28.9098	1371.89	-145.807	126.403	1174.34	144.882	235.459	869.106	82.6535	149.063	1054.53	178.856	17.9359	1492.18	55.3602	66.1097	1343.19	133.537	181.35	938.519	83.2064	152.646	917.471	171.738
672	2.8	-132.795	1546.21	-63.6285	28.9758	1371.82	-145.82	125.93	1173.23	143.927	233.611	867.664	80.7694	148.097	1053.22	177.534	18.2242	1491.87	55.4017	66.1683	1342.49	133.192	179.796	937.429	81.4795	151.045	916.221	170.063
673	2.804	-132.687	1546.15	-63.2928	29.0346	1371.75	-145.821	125.398	1172.22	143.002	231.77	866.23	78.8267	147.139	1051.98	176.219	18.515	1491.55	55.4289	66.2731	1341.8	132.826	178.285	936.273	79.7942	149.461	914.913	168.375
674	2.808	-132.581	1546.12	-63.1448	29.082	1371.7	-145.831	124.944	1171.19	142.117	229.951	864.971	76.9642	146.117	1050.75	174.889	18.8196	1491.28	55.4778	66.3457	1341.15	132.498	176.747	935.149	78.1863	147.896	913.644	166.661
675	2.813	-132.441	1546.07	-62.9863	29.1425	1371.6	-145.838	124.302	1169.98	141.022	227.678	863.317	74.6754	144.911	1049.2	173.287	19.1719	1490.95	55.514	66.4434	1340.36	132.091	174.87	933.808	76.1212	145.916	912.175	164.581
676	2.817	-132.341	1546.04	-62.8694	29.198	1371.53	-145.852	123.783	1168.99	140.096	225.893	862.103	72.905	143.926	1048.06	172.034	19.3911	1490.73	55.5666	66.512	1339.8	131.781	173.4	932.726	74.5345	144.392	911.038	162.963
677	2.821	-132.216	1546.03	-62.7126	29.2397	1371.48	-145.867	123.297	1168.15	139.192	224.172	860.944	71.1306	142.937	1046.91	170.732	19.5961	1490.53	55.6772	66.6043	1339.28	131.456	171.926	931.788	72.9396	142.779	909.97	161.289
678	2.825	-132.116	1546.01	-62.6065	29.2888	1371.41	-145.876	122.794	1167.28	138.252	222.399	859.755	69.3862	141.95	1045.85	169.471	19.8059	1490.35	55.7362	66.6111	1338.76	131.149	170.509	930.893	71.3372	141.212	908.882	159.614
679	2.829	-132.013	1546	-62.4473	29.3364	1371.36	-145.883	122.285	1166.49	137.398	220.588	858.578	67.6683	140.99	1044.87	168.222	20.0286	1490.18	55.7813	66.6464	1338.19	130.777	169.051	929.999	69.8018	139.62	907.917	158.035
680	2.833	-131.905	1545.99	-62.3329	29.3709	1371.3	-145.887	121.759	1165.65	136.472	218.893	857.458	65.9602	139.989	1043.88	166.932	20.2214	1489.99	55.8389	66.6638	1337.7	130.449	167.651	929.106	68.2216	138.088	906.934	156.431
681	2.837	-131.709	1545.96	-62.1563	29.4116	1371.25	-145.887	121.23	1164.86	135.593	217.229	856.426	64.3639	139.066	1042.97	165.76	20.4308	1489.85	55.9039	66.6719	1337.29	130.195	166.237	928.238	66.7623	136.604	906.025	154.85
682	2.842	-131.583	1545.96	-62.0193	29.4601	1371.2	-145.877	120.567	1163.97	134.55	215.094	855.094	62.2833	137.821	1041.83	164.242	20.6937	1489.7	55.9848	66.6502	1336.76	129.842	164.534	927.305	64.8835	134.71	904.963	152.986
